<svg xmlns="http://www.w3.org/2000/svg" viewBox="0 0 24 24">
    <g transform="translate(-22.877 -3.877)">
        <path d="M37.4,25.4a12,12,0,1,0,12,12,12,12,0,0,0-12-12Zm6.554,8.566-7.8,7.8a.631.631,0,0,1-.723.133l-.024.036-.157-.145-4.4-4.4a.63.63,0,0,1-.193-.446.665.665,0,0,1,.193-.47.63.63,0,0,1,.446-.193h.012a.658.658,0,0,1,.458.193l3.916,3.916,7.337-7.337a.637.637,0,0,1,.458-.193H43.5a.658.658,0,0,1,.458.193h0a.647.647,0,0,1,0,.916Z" transform="translate(-2.523 -21.523)"/>
    </g>
</svg>
